<?xml version="1.0" encoding="UTF-8" standalone="no"?>
<svg
   xmlns:dc="http://purl.org/dc/elements/1.1/"
   xmlns:cc="http://creativecommons.org/ns#"
   xmlns:rdf="http://www.w3.org/1999/02/22-rdf-syntax-ns#"
   xmlns:svg="http://www.w3.org/2000/svg"
   xmlns="http://www.w3.org/2000/svg"
   viewBox="0 0 458.57333 187.70667"
   height="187.70667"
   width="458.57333"
   xml:space="preserve"
   id="svg2"
   version="1.1"><metadata
     id="metadata8"><rdf:RDF><cc:Work
         rdf:about=""><dc:format>image/svg+xml</dc:format><dc:type
           rdf:resource="http://purl.org/dc/dcmitype/StillImage" /></cc:Work></rdf:RDF></metadata><defs
     id="defs6"><clipPath
       id="clipPath20"
       clipPathUnits="userSpaceOnUse"><path
         id="path18"
         d="M 0,0 H 3439 V 1407.84 H 0 Z" /></clipPath></defs><g
     transform="matrix(1.3333333,0,0,-1.3333333,0,187.70667)"
     id="g10"><g
       transform="scale(0.1)"
       id="g12"><g
         id="g14"><g
           clip-path="url(#clipPath20)"
           id="g16"><path
             id="path22"
             style="fill:#231f20;fill-opacity:1;fill-rule:nonzero;stroke:none"
             d="m 3439.26,269.871 c 0,-10.32 -8.44,-18.75 -18.75,-18.75 H 2160.72 c -10.31,0 -18.75,8.43 -18.75,18.75 V 1389.09 c 0,10.31 8.44,18.75 18.75,18.75 h 1259.79 c 10.31,0 18.75,-8.44 18.75,-18.75 V 269.871" /><path
             id="path24"
             style="fill:#ffffff;fill-opacity:1;fill-rule:nonzero;stroke:none"
             d="m 3355.21,399.84 c 0,-13.059 -10.69,-23.738 -23.75,-23.738 H 2260.34 c -13.05,0 -23.74,10.679 -23.74,23.738 v 891.66 c 0,13.05 10.69,23.73 23.74,23.73 h 1071.12 c 13.06,0 23.75,-10.68 23.75,-23.73 V 399.84" /><path
             id="path26"
             style="fill:#80cc28;fill-opacity:1;fill-rule:nonzero;stroke:none"
             d="m 2450,684.926 v 105.746 h 87.62 c 29.01,0 71.34,6.73 72.79,43.769 0,25.672 -27.48,48.34 -72.79,48.34 -38.61,0 -75.74,-14.304 -76.47,-52.097 h -141.16 c 3,129.902 114.4,175.166 217.63,175.166 100.27,0 219.88,-43.791 219.88,-165.373 0,-40 -26.04,-83.055 -69.09,-101.907 60.16,-22.691 80.92,-68 80.92,-116.359 0,-123.867 -131.44,-163.887 -232.46,-163.887 -104.7,0 -225.03,48.34 -224.25,184.356 h 144.08 c 0.72,-47.657 43.76,-63.457 87.6,-63.457 36.4,0 72.07,18.125 72.07,52.07 0,13.594 -3.73,53.633 -72.07,53.633 H 2450" /><path
             id="path28"
             style="fill:#ffffff;fill-opacity:1;fill-rule:nonzero;stroke:none"
             d="M 2183.22,1202.86 H 3421.96" /><path
             id="path30"
             style="fill:#231f20;fill-opacity:1;fill-rule:nonzero;stroke:none"
             d="m 2183.22,1184.86 h 1238.74 v 35.9883 H 2183.22 Z" /><path
             id="path32"
             style="fill:#80cc28;fill-opacity:1;fill-rule:nonzero;stroke:none"
             d="m 3022.08,996.824 h -39.1 V 872.215 h 39.1 c 89.9,0 126.32,-61.953 126.32,-134.403 0,-72.535 -32.69,-143.492 -126.32,-143.492 H 2944.7 V 996.824 H 2799.28 V 468.207 h 222.8 c 186.43,0 271.85,122.324 271.85,268.039 0,145.781 -88.37,260.578 -271.85,260.578" /><path
             id="path34"
             style="fill:#231f20;fill-opacity:1;fill-rule:nonzero;stroke:none"
             d="m 2753.13,1102.65 h 169.402 v 118.195 H 2753.13 Z" /><path
             id="path36"
             style="fill:#231f20;fill-opacity:1;fill-rule:nonzero;stroke:none"
             d="m 2810.88,1032.15 h 50.1016 v 93.9336 H 2810.88 Z" /><path
             id="path38"
             style="fill:#80cc28;fill-opacity:1;fill-rule:nonzero;stroke:none"
             d="m 14.5039,212.93 h 35.5156 c 11.8438,0 27.5782,3.109 27.5782,18.711 -0.1563,14.48 -14.6016,20.39 -26.9258,20.39 h -36.168 z m 0,52.07 h 36.168 c 13.625,0 23.5195,5.102 23.5195,17.09 0,12.82 -10.2187,19.379 -24.1719,19.379 H 14.5039 Z m 35.5156,49.461 c 20.6055,0 38.125,-10.359 38.125,-32.211 0,-10.512 -6.0039,-19.379 -16.875,-23.648 13.7891,-3.954 20.4414,-16.762 20.4414,-27.43 0,-24.473 -20.2773,-31.711 -41.6914,-31.711 H 0.378906 v 115 H 50.0195" /><path
             id="path40"
             style="fill:#80cc28;fill-opacity:1;fill-rule:nonzero;stroke:none"
             d="m 211.262,314.281 v -68.98 c 0,-31.879 -21.262,-47.973 -46.074,-47.973 -24.172,0 -46.555,15.762 -46.555,47.973 v 68.98 h 13.957 v -68.98 c 0,-22.84 15.074,-34.832 32.598,-34.832 17.515,0 32.117,12.461 32.117,34.98 v 69.012 h 13.789 l 0.168,-0.18" /><path
             id="path42"
             style="fill:#80cc28;fill-opacity:1;fill-rule:nonzero;stroke:none"
             d="m 245.242,199.461 h 14.1211 v 115 H 245.242 Z" /><path
             id="path44"
             style="fill:#80cc28;fill-opacity:1;fill-rule:nonzero;stroke:none"
             d="m 308.066,212.762 h 61.805 v -13.301 h -75.918 v 115 h 14.113 V 212.762" /><path
             id="path46"
             style="fill:#80cc28;fill-opacity:1;fill-rule:nonzero;stroke:none"
             d="m 476.086,258.441 c 0,21.348 -13.957,42.379 -42.988,42.379 h -27.246 v -87.07 h 27.246 c 30.172,0 42.988,22.68 42.988,44.691 z m -84.348,56.168 h 41.36 c 38.613,0 57.097,-27.929 57.097,-56.347 0,-29.391 -17.351,-58.801 -57.097,-58.801 h -41.36 v 115.148" /><path
             id="path48"
             style="fill:#80cc28;fill-opacity:1;fill-rule:nonzero;stroke:none"
             d="m 518.535,199.461 h 14.1094 v 115 H 518.535 Z" /><path
             id="path50"
             style="fill:#80cc28;fill-opacity:1;fill-rule:nonzero;stroke:none"
             d="m 577.141,314.461 69.589,-88.07 v 88.07 h 13.946 v -115 h -9.731 l -69.754,87.73 v -87.73 h -13.957 v 115 h 9.907" /><path
             id="path52"
             style="fill:#80cc28;fill-opacity:1;fill-rule:nonzero;stroke:none"
             d="m 781.516,289.98 c -8.918,8.692 -22.063,13.481 -33.578,13.481 -29.188,0 -45.094,-22.191 -45.094,-47.5 0,-23.32 14.597,-45.18 45.418,-45.18 10.703,0 21.574,3.457 30.984,11.68 v 27.269 h -35.359 v 12.661 h 48.175 v -45.512 c -11.527,-12.5 -25.624,-19.551 -43.964,-19.551 -40.395,0 -59.203,27.75 -59.203,58.633 -0.165,34.359 22.062,60.801 59.043,60.801 15.082,0 30.175,-5.762 41.691,-17.25 l -8.113,-9.532" /><path
             id="path54"
             style="fill:#80cc28;fill-opacity:1;fill-rule:nonzero;stroke:none"
             d="m 866.34,284.711 c 0.176,24.32 23.848,31.539 43.805,31.539 24.484,0 42.98,-12.148 43.148,-32.5 0,-11.828 -8.438,-22.031 -20.273,-24.82 12.324,-3.129 22.539,-13.629 22.539,-26.45 0,-22.671 -20.121,-34.332 -45.579,-34.332 -20.449,0 -45.253,7.204 -45.253,32.692 h 14.101 c 0.164,-17.238 19.309,-19.551 31.477,-19.551 18.007,0 31.14,7.383 31.14,20.691 0,9.7 -8.593,20.54 -30.5,20.54 h -18.328 v 11.992 h 17.363 c 17.508,0 29.2,8.226 29.356,19.066 0.168,9.512 -8.438,19.531 -29.031,19.531 -12.168,0 -29.692,-3.129 -29.692,-18.558 H 866.66 l -0.32,0.16" /><path
             id="path56"
             style="fill:#80cc28;fill-opacity:1;fill-rule:nonzero;stroke:none"
             d="m 1066.02,258.441 c 0,21.348 -13.95,42.379 -42.98,42.379 h -27.247 v -87.07 h 27.247 c 30.16,0 42.98,22.68 42.98,44.691 z m -84.348,56.168 h 41.368 c 38.6,0 57.1,-27.929 57.1,-56.347 0,-29.391 -17.36,-58.801 -57.1,-58.801 h -41.368 v 115.148" /><path
             id="path58"
             style="fill:#80cc28;fill-opacity:1;fill-rule:nonzero;stroke:none"
             d="m 1206.16,301.16 h -37.62 v -51.269 h 37.62 c 33.42,0 33.42,51.269 0,51.269 z m -37.62,-101.699 h -13.96 v 115 h 51.58 c 52.24,0 52.24,-77.723 0,-77.871 h -37.62 v -37.129" /><path
             id="path60"
             style="fill:#80cc28;fill-opacity:1;fill-rule:nonzero;stroke:none"
             d="m 1344.35,277.328 c 0.15,11.5 -7.95,24.313 -24.33,24.313 h -37.48 v -47.969 h 36.83 c 17.03,0 24.98,10.687 24.98,23.656 z m -34.23,-36.488 h -27.58 v -41.379 h -14.11 v 115 h 51.59 c 25.62,0 38.44,-18.07 38.44,-36.801 0.15,-17.422 -9.25,-33.691 -32.61,-35.648 l 37.47,-42.551 h -17.84 l -35.36,41.379" /><path
             id="path62"
             style="fill:#80cc28;fill-opacity:1;fill-rule:nonzero;stroke:none"
             d="m 1387.83,199.461 h 14.1094 v 115 H 1387.83 Z" /><path
             id="path64"
             style="fill:#80cc28;fill-opacity:1;fill-rule:nonzero;stroke:none"
             d="m 1446.43,314.461 69.59,-88.07 v 88.07 h 13.95 v -115 h -9.73 l -69.75,87.73 v -87.73 h -13.96 v 115 h 9.9" /><path
             id="path66"
             style="fill:#80cc28;fill-opacity:1;fill-rule:nonzero;stroke:none"
             d="m 1551.84,301.641 v 12.82 h 91.48 v -12.82 h -38.77 v -102.18 h -13.95 v 102.18 h -38.76" /><path
             id="path68"
             style="fill:#80cc28;fill-opacity:1;fill-rule:nonzero;stroke:none"
             d="m 1665.18,314.461 h 79.8 v -13.133 h -65.85 V 265.34 h 63.1 v -13.309 h -63.1 V 213.09 h 68.46 v -13.629 h -82.41 v 115" /><path
             id="path70"
             style="fill:#80cc28;fill-opacity:1;fill-rule:nonzero;stroke:none"
             d="m 1850.2,277.328 c 0.15,11.5 -7.94,24.313 -24.33,24.313 h -37.47 v -47.969 h 36.81 c 17.05,0 24.99,10.687 24.99,23.656 z m -34.23,-36.488 h -27.57 v -41.379 h -14.12 v 115 h 51.59 c 25.61,0 38.45,-18.07 38.45,-36.801 0.16,-17.422 -9.26,-33.691 -32.61,-35.648 l 37.47,-42.551 h -17.86 l -35.35,41.379" /><path
             id="path72"
             style="fill:#80cc28;fill-opacity:1;fill-rule:nonzero;stroke:none"
             d="m 1932.43,304.102 c -14.43,0 -29.83,-5.762 -29.83,-19.723 0,-12.457 14.12,-16.098 30.81,-18.891 22.72,-3.609 45.12,-8.199 45.12,-34.16 -0.17,-25.797 -24.52,-34.18 -46.24,-34.18 -20.13,0 -39.27,7.403 -48.02,26.622 l 11.69,6.902 c 7.29,-13.641 22.54,-20.203 36.47,-20.203 13.8,0 32.13,4.441 32.13,21.351 0.17,14.301 -15.73,18.399 -32.76,21.02 -21.9,3.449 -43.15,8.551 -43.15,31.871 -0.33,24 23.84,32.23 43.48,32.23 16.85,0 32.92,-3.461 42.97,-20.882 l -10.71,-6.739 c -6.15,10.02 -19.3,14.61 -31.96,14.782" /><path
             id="path74"
             style="fill:#80cc28;fill-opacity:1;fill-rule:nonzero;stroke:none"
             d="M 79.2188,117.289 V 103.66 H 14.5039 V 63.5781 H 76.4648 V 50.3008 H 14.5039 V 2.12891 H 0.378906 V 117.289 H 79.2188" /><path
             id="path76"
             style="fill:#80cc28;fill-opacity:1;fill-rule:nonzero;stroke:none"
             d="m 186.387,80.1797 c 0.168,11.5 -7.949,24.3203 -24.325,24.3203 H 124.59 V 56.5312 h 36.816 c 17.032,0 24.981,10.6602 24.981,23.6485 z M 152.156,43.6914 H 124.59 V 2.30859 H 110.469 V 117.289 h 51.593 c 25.626,0 38.434,-18.0507 38.434,-36.8007 0.156,-17.3985 -9.246,-33.668 -32.605,-35.6172 L 205.359,2.30859 H 187.527 L 152.156,43.6914" /><path
             id="path78"
             style="fill:#80cc28;fill-opacity:1;fill-rule:nonzero;stroke:none"
             d="m 286.426,106.141 c -28.867,0 -43.789,-21.5316 -43.789,-46.6801 0,-23.3007 13.957,-45.9804 43.789,-45.9804 29.851,0 43.32,23.3203 43.32,45.9804 0.156,23.3399 -13.633,46.3401 -43.32,46.6801 z M 343.855,59.4609 C 343.691,29.4219 325.195,0 286.27,0 c -38.934,0 -57.747,29.2617 -57.747,59.4609 0,33.3594 22.051,59.8011 57.903,59.8011 38.445,-0.16 57.59,-29.3909 57.429,-59.8011" /><path
             id="path80"
             style="fill:#80cc28;fill-opacity:1;fill-rule:nonzero;stroke:none"
             d="m 436.602,38.4414 h -2.918 l -41.204,58.5 V 2.30859 H 378.535 V 117.289 h 16.863 l 39.914,-59.1171 39.571,59.1171 h 16.875 V 2.30859 H 477.805 V 96.6016 L 436.602,38.4414" /><path
             id="path82"
             style="fill:#80cc28;fill-opacity:1;fill-rule:nonzero;stroke:none"
             d="m 586.152,117.289 h 79.805 V 104.16 H 600.105 V 68.1914 h 63.098 V 54.8906 H 600.105 V 15.9414 h 68.45 V 2.30859 H 586.152 V 117.289" /><path
             id="path84"
             style="fill:#80cc28;fill-opacity:1;fill-rule:nonzero;stroke:none"
             d="m 694.988,43.0508 h 58.0781 V 55.8594 H 694.988 Z" /><path
             id="path86"
             style="fill:#80cc28;fill-opacity:1;fill-rule:nonzero;stroke:none"
             d="m 787.188,117.289 31.308,-95.0976 31.465,95.0976 h 9.082 l 31.797,-95.0976 30.984,95.0976 h 16.059 L 898.137,2.12891 H 884.023 L 854.504,88.2305 825.145,2.12891 H 810.867 L 771.301,117.289 h 15.887" /><path
             id="path88"
             style="fill:#80cc28;fill-opacity:1;fill-rule:nonzero;stroke:none"
             d="M 1004.88,102.852 977.949,40.75 h 53.861 z m 7.94,14.437 50.94,-114.98041 h -15.25 l -11.2,25.29301 H 972.441 L 961.406,2.30859 h -15.41 L 996.934,117.289 h 15.886" /><path
             id="path90"
             style="fill:#80cc28;fill-opacity:1;fill-rule:nonzero;stroke:none"
             d="m 1131.2,106.961 c -14.43,0 -29.83,-5.77 -29.83,-19.711 0,-12.4805 14.1,-16.0898 30.81,-18.9102 22.71,-3.6093 45.1,-8.1992 45.1,-34.1601 C 1177.11,8.37891 1152.78,0 1131.05,0 c -20.12,0 -39.26,7.39062 -48.01,26.6211 l 11.68,6.8984 c 7.29,-13.6289 22.54,-20.1992 36.48,-20.1992 13.8,0 32.12,4.418 32.12,21.3516 0.17,14.2773 -15.72,18.3984 -32.75,21.039 -21.91,3.4297 -43.16,8.5274 -43.16,31.8477 -0.32,24.0114 23.85,32.2114 43.47,32.2114 16.87,0 32.94,-3.461 42.99,-20.8598 l -10.71,-6.7383 c -6.16,10.0191 -19.3,14.6091 -31.96,14.7891" /><path
             id="path92"
             style="fill:#80cc28;fill-opacity:1;fill-rule:nonzero;stroke:none"
             d="m 1199.05,104.5 v 12.789 h 91.49 V 104.5 h -38.77 V 2.30859 h -13.95 V 104.5 h -38.77" /><path
             id="path94"
             style="fill:#80cc28;fill-opacity:1;fill-rule:nonzero;stroke:none"
             d="m 1318.89,117.289 h 79.8 V 104.16 h -65.86 V 68.1914 h 63.1 V 54.8906 h -63.1 V 15.9414 h 68.46 V 2.30859 h -82.4 V 117.289" /><path
             id="path96"
             style="fill:#231f20;fill-opacity:1;fill-rule:nonzero;stroke:none"
             d="M 1649.48,837.234 H 1511.69 V 665.316 c 0,-14.218 0.67,-27.089 2.07,-38.769 1.39,-11.68 4.51,-21.719 9.4,-30.274 4.86,-8.457 12.35,-15 22.44,-19.609 10.07,-4.629 23.47,-6.894 40.19,-6.894 8.36,0 19.32,0.859 32.88,2.636 13.57,1.797 23.85,5.879 30.81,12.285 V 451.938 c -17.39,-6.368 -35.51,-10.626 -54.29,-12.735 -18.77,-2.109 -37.25,-3.203 -55.33,-3.203 -26.45,0 -50.82,2.852 -73.07,8.496 -22.31,5.645 -41.76,14.668 -58.49,27.109 -16.68,12.325 -29.73,28.438 -39.13,48.301 -9.39,19.746 -14.1,43.809 -14.1,72.11 v 245.218 h -100.22 v 127.43 h 100.22 v 152.876 h 156.62 V 964.664 h 137.79 v -127.43" /><path
             id="path98"
             style="fill:#231f20;fill-opacity:1;fill-rule:nonzero;stroke:none"
             d="m 1707.9,964.664 h 156.63 v -82.801 h 2.09 c 16.7,31.848 36.52,55.711 59.5,71.668 22.96,15.918 51.85,23.852 86.64,23.852 9.03,0 18.08,-0.344 27.15,-1.059 9.05,-0.711 17.36,-2.129 25.04,-4.234 V 826.656 c -11.13,3.539 -22.09,6.164 -32.85,7.973 -10.82,1.766 -22.12,2.605 -33.94,2.605 -29.95,0 -53.6,-4.207 -71,-12.675 -17.39,-8.528 -30.82,-20.379 -40.18,-35.594 -9.41,-15.227 -15.5,-33.379 -18.29,-54.629 -2.79,-21.262 -4.16,-44.625 -4.16,-70.094 V 448.715 H 1707.9 v 515.949" /><path
             id="path100"
             style="fill:#80cc28;fill-opacity:1;fill-rule:nonzero;stroke:none"
             d="m 1250.67,706.707 c 0,41.055 -5.56,78.164 -16.71,111.484 -11.13,33.211 -26.94,61.731 -47.48,85.45 -20.55,23.691 -45.6,41.914 -75.16,54.636 -29.61,12.778 -62.48,19.106 -98.64,19.106 -39.008,0 -75.707,-6.328 -110.141,-19.106 -34.48,-12.722 -64.402,-30.945 -89.805,-54.636 -2.597,-2.43 -4.796,-5.227 -7.273,-7.774 l -29.594,27.102 -41.031,-137.524 h 191.238 l -25.683,23.52 c 4.785,8.609 10.461,16.648 17.8,23.523 9.375,8.86 20.696,16.082 33.899,21.778 13.23,5.644 28.547,8.507 45.969,8.507 28.501,0 51.821,-9.562 69.951,-28.671 18.06,-19.114 26.78,-42.114 26.09,-69.036 H 736.152 c -3.547,-18.332 -5.359,-38.132 -5.359,-58.359 0,-41.019 7.305,-78.207 21.934,-111.488 14.617,-33.203 34.609,-61.719 60.007,-85.449 25.403,-23.692 55.325,-41.915 89.805,-54.649 C 936.973,442.367 973.672,436 1012.68,436 c 41.03,0 94.49,8.848 132.8,26.543 22.09,10.195 41.72,23.184 59.4,38.359 l 43.82,-43.535 v 166.758 h -167.82 l 32.5,-32.285 c -29.64,-32.129 -85.07,-34.805 -108.02,-34.805 -30.653,0 -56.383,9.024 -77.262,27.051 -20.879,18.086 -34.446,42.285 -40.727,72.715 h 363.299 v 49.906" /><path
             id="path102"
             style="fill:#231f20;fill-opacity:1;fill-rule:nonzero;stroke:none"
             d="m 282.18,860.02 h 63.269 c 78.235,0 117.356,27.871 117.356,83.66 0,27.558 -8.918,48.125 -26.797,61.76 -17.844,13.57 -42.434,20.39 -73.723,20.39 H 282.18 Z M 739.855,555.902 V 436 H 523.652 L 363.398,746.734 H 282.18 V 555.902 h 88.765 V 436 L 0,436 V 555.902 H 97.4805 V 1025.83 H 0 v 119.93 h 428.125 c 80.598,0 138.684,-20.35 174.23,-60.99 35.528,-40.66 53.309,-86.676 53.309,-138.004 0,-80.645 -40.984,-139.493 -122.961,-176.551 L 648.008,555.902 h 91.847" /></g></g></g></g></svg>