<?xml version="1.0" encoding="UTF-8" standalone="no"?>
<!-- Created with Inkscape (http://www.inkscape.org/) -->

<svg
   xmlns:dc="http://purl.org/dc/elements/1.1/"
   xmlns:cc="http://creativecommons.org/ns#"
   xmlns:rdf="http://www.w3.org/1999/02/22-rdf-syntax-ns#"
   xmlns:svg="http://www.w3.org/2000/svg"
   xmlns="http://www.w3.org/2000/svg"
   xmlns:sodipodi="http://sodipodi.sourceforge.net/DTD/sodipodi-0.dtd"
   xmlns:inkscape="http://www.inkscape.org/namespaces/inkscape"
   width="626.56512"
   height="740.76404"
   id="svg3057"
   version="1.1"
   inkscape:version="0.48.4 r9939"
   sodipodi:docname="view.svg">
  <defs
     id="defs3059" />
  <sodipodi:namedview
     id="base"
     pagecolor="#ffffff"
     bordercolor="#666666"
     borderopacity="1.0"
     inkscape:pageopacity="0.0"
     inkscape:pageshadow="2"
     inkscape:zoom="0.49497475"
     inkscape:cx="216.54746"
     inkscape:cy="262.27172"
     inkscape:document-units="px"
     inkscape:current-layer="layer1"
     showgrid="false"
     inkscape:window-width="1391"
     inkscape:window-height="882"
     inkscape:window-x="49"
     inkscape:window-y="18"
     inkscape:window-maximized="1"
     fit-margin-top="0"
     fit-margin-left="0"
     fit-margin-right="0"
     fit-margin-bottom="0" />
  <metadata
     id="metadata3062">
    <rdf:RDF>
      <cc:Work
         rdf:about="">
        <dc:format>image/svg+xml</dc:format>
        <dc:type
           rdf:resource="http://purl.org/dc/dcmitype/StillImage" />
        <dc:title></dc:title>
      </cc:Work>
    </rdf:RDF>
  </metadata>
  <g
     inkscape:label="Layer 1"
     inkscape:groupmode="layer"
     id="layer1"
     transform="translate(-69.832509,-154.93727)">
    <path
       inkscape:connector-curvature="0"
       id="path3094"
       d="m -767.05349,300.69062 0,-372.000006 315.50001,0 315.5,0 0,372.000006 0,372 -315.5,0 -315.50001,0 0,-372 z"
       style="fill:#fdfefe" />
    <path
       inkscape:connector-curvature="0"
       id="path3092"
       d="m 112.7574,895.01303 c -6.33555,-0.48785 -9.56688,-1.35296 -15.000001,-4.0159 -9.14994,-4.48466 -18.67388,-14.04463 -23.96198,-24.05265 l -3.96291,-7.5 0,-334.05185 0,-334.05184 3.7159,-7.51862 c 6.18537,-12.51528 16.28264,-21.95007 28.750961,-26.86462 5.09932,-2.00997 6.55537,-2.02047 280.03365,-2.02028 273.46902,2e-4 274.93449,0.0108 280.03315,2.02047 6.99547,2.75736 15.8888,8.95567 20.71283,14.43606 5.46817,6.21218 10.85388,16.83003 12.1656,23.98434 1.53468,8.37033 1.5387,650.73104 0.004,659.13268 -2.64801,14.4976 -14.46839,29.72648 -28.32354,36.49083 -6.16867,3.01166 -8.14703,3.44816 -18.5,4.08172 -14.17991,0.86775 -524.355,0.80076 -535.66779,-0.0703 z m 503.07511,-94.56855 0,-14 -233.49999,0 -233.5,0 -0.28135,12.94711 c -0.15474,7.12092 -0.056,13.53437 0.21942,14.25212 0.41028,1.06916 42.65767,1.25943 233.78136,1.05288 l 233.28056,-0.25211 0,-14 z m 0,-72.5 0,-14.5 -233.49999,0 -233.5,0 -0.28042,13.44955 c -0.15423,7.39725 -0.0555,14.0357 0.21943,14.75211 0.40903,1.06593 42.87907,1.25676 233.78042,1.05045 l 233.28056,-0.25211 0,-14.5 z m 0,-73 0,-14.5 -233.49999,0 -233.5,0 -0.28042,13.44955 c -0.15423,7.39725 -0.0555,14.0357 0.21943,14.75211 0.40903,1.06593 42.87907,1.25676 233.78042,1.05045 l 233.28056,-0.25211 0,-14.5 z m 0,-72.5 0,-14 -233.49999,0 -233.5,0 -0.28135,12.94711 c -0.15474,7.12092 -0.056,13.53437 0.21942,14.25212 0.41028,1.06916 42.65767,1.25943 233.78136,1.05288 l 233.28056,-0.25211 0,-14 z M 425.20413,543.97915 c 31.2234,-5.53914 60.46375,-16.4559 88.6171,-33.08481 15.73214,-9.29227 32.26291,-22.56944 49.03611,-39.38477 24.07824,-24.13873 37.78283,-43.21197 52.81625,-73.50651 l 8.15893,-16.44142 0,-9.66674 0,-9.66673 -8.75903,-17.55577 c -9.06719,-18.17343 -20.72506,-36.66376 -31.73411,-50.33288 -10.07022,-12.50344 -35.4442,-37.11991 -48.00687,-46.57369 -32.87322,-24.73807 -69.44395,-40.59422 -110.66688,-47.98236 -11.26688,-2.0193 -16.06733,-2.3 -39.33311,-2.3 -23.26578,0 -28.06623,0.2807 -39.33312,2.3 -31.91333,5.71964 -60.87962,16.50981 -89.1556,33.21115 -15.73214,9.29227 -32.26291,22.56944 -49.03611,39.38477 -24.07824,24.13873 -37.78283,43.21197 -52.81625,73.50651 l -8.15892,16.44142 0,9.66674 0,9.66673 8.75902,17.55577 c 9.07654,18.19218 20.74463,36.69454 31.74128,50.33288 10.55313,13.08828 35.5165,37.25135 48.65963,47.09967 32.50067,24.35317 70.57141,40.76055 109.50695,47.19431 17.51809,2.89472 17.84715,2.91429 43.83312,2.60773 18.85667,-0.22245 25.94449,-0.71089 35.87161,-2.472 z m -55.87161,-28.03806 c -14.54503,-1.1205 -28.41831,-3.60912 -42.25328,-7.57949 -49.93605,-14.3307 -96.66771,-49.19185 -127.58368,-95.17562 -11.31952,-16.83641 -14.13348,-25.04756 -14.13348,-41.2415 0,-16.19394 2.81396,-24.40509 14.13348,-41.2415 32.19209,-47.88185 80.87865,-83.19144 133.44305,-96.77866 32.78944,-8.47564 71.99838,-8.47564 104.78781,0 52.49704,13.56981 101.29221,48.95817 133.44305,96.77866 11.31952,16.83641 14.13348,25.04756 14.13348,41.2415 0,16.19394 -2.81396,24.40509 -14.13348,41.2415 -32.19209,47.88185 -80.87865,83.19144 -133.44305,96.77866 -20.26558,5.23839 -47.30434,7.60111 -68.3939,5.97645 z m 45.5,-20.36021 c 24.8648,-6.36172 44.49072,-17.60626 61.59031,-35.28777 12.46847,-12.89279 21.55517,-27.03022 27.86191,-43.34863 9.66968,-25.01984 10.61471,-57.6347 2.40136,-82.87608 -6.16965,-18.96066 -15.79805,-35.23388 -29.14577,-49.26005 -17.93963,-18.85148 -38.08656,-30.44488 -64.20781,-36.9479 -8.27135,-2.05919 -11.89264,-2.36507 -28,-2.36507 -16.10736,0 -19.72865,0.30588 -28,2.36507 -49.0892,12.22101 -83.86302,46.99483 -96.08403,96.08403 -2.05919,8.27135 -2.36507,11.89264 -2.36507,28 0,19.88473 1.44864,28.77023 7.17349,44 15.21957,40.48851 49.67276,70.61378 91.33868,79.86495 13.8589,3.07712 13.09605,3.0116 30.93693,2.65748 13.69899,-0.27191 18.19758,-0.76184 26.5,-2.88603 z m -38.52797,-59.56559 c -23.23354,-3.1941 -44.24662,-20.3503 -52.02244,-42.47392 -4.07094,-11.58255 -4.56713,-30.58203 -1.0409,-39.85672 0.74444,-1.95804 0.65049,-3.5536 -0.35079,-5.95724 -6.96024,-16.7085 2.98975,-35.34913 20.77521,-38.92096 4.66608,-0.93708 6.83467,-0.84885 12.41048,0.50492 5.16713,1.25456 7.5797,1.39692 10.25641,0.60521 11.78574,-3.48595 28.6057,-3.15479 40.30084,0.79347 17.29153,5.83758 34.15041,22.75342 39.89408,40.02885 4.33206,13.02967 4.34759,29.74542 0.0395,42.50642 -6.43022,19.04699 -24.76905,36.23597 -43.7944,41.04846 -7.61159,1.92537 -19.40542,2.69245 -26.46799,1.72151 z m 20.65958,-18.46094 c 12.77179,-3.40072 24.36826,-12.70752 30.15226,-24.19884 4.07015,-8.08633 5.57609,-15.63182 5.02382,-25.17191 -0.37716,-6.51525 -1.12778,-9.38068 -4.09288,-15.62434 -8.54275,-17.98863 -25.62431,-28.35564 -45.21481,-27.44144 -6.37259,0.29738 -6.967,0.50592 -6.63187,2.32666 0.20247,1.1 0.4009,5.375 0.44094,9.5 0.10903,11.23003 -4.48073,19.01155 -14.47635,24.54334 -4.88796,2.70511 -6.11469,2.94426 -14.70854,2.8675 l -9.37582,-0.0838 0.46901,9.74006 c 0.41352,8.58741 0.89681,10.64086 4.08392,17.35201 6.11332,12.87291 17.36921,22.48358 30.61053,26.13632 6.17104,1.70234 17.43378,1.72817 23.71979,0.0544 z"
       style="fill:#149856" />
  </g>
</svg>
